<svg xmlns="http://www.w3.org/2000/svg" xmlns:xlink="http://www.w3.org/1999/xlink" xmlns:lucid="lucid" width="740" height="810"><g transform="translate(-140 40)" lucid:page-tab-id="0_0"><path d="M0-1258.83h1870.87v2581.66H0z" fill="#fff"/><path d="M160-14c0-3.3 2.7-6 6-6h688c3.3 0 6 2.7 6 6v758c0 3.3-2.7 6-6 6H166c-3.3 0-6-2.7-6-6z" stroke="#000" stroke-opacity="0" stroke-width="3" fill="#fff" fill-opacity="0"/><use xlink:href="#a" transform="matrix(1,0,0,1,165,-15) translate(27.453333333333262 219.375)"/><use xlink:href="#b" transform="matrix(1,0,0,1,165,-15) translate(218.92 432.70833333333337)"/><use xlink:href="#c" transform="matrix(1,0,0,1,165,-15) translate(15.506666666666604 646.0416666666667)"/><defs><path fill="#0c7cba" d="M426-839V0H-6v-839h432zM221-114c102-5 164-64 168-164 3-69-41-121-88-146 47-23 91-78 88-146-4-99-66-164-168-164H31v620h190" id="d"/><path fill="#0c7cba" d="M550-839V0H-7v-839h557zM273-113c161 0 241-118 241-297 0-198-72-324-241-324-141 0-240 96-240 229v145c10 146 95 247 240 247" id="e"/><path fill="#0c7cba" d="M547-838V1H-12v-839h559zM266-112c146 0 241-101 241-247v-374H367v371c-4 64-37 110-100 110-64 0-101-46-101-110v-371H26v374c10 146 95 247 240 247" id="f"/><path fill="#0c7cba" d="M-9-839h539V0H-9v-839zm498 725v-620H349v346L175-734H32v620h140v-346l175 346h142" id="g"/><path fill="#0c7cba" d="M537-839V0H-9v-839h546zM368-363c-4 64-38 109-101 109-107 0-106-117-100-231 3-63 37-109 100-109s97 46 101 109h140c-2-144-108-249-241-249-132 0-237 105-240 247v128c3 172 166 296 333 226 83-35 146-114 148-230H368" id="h"/><path fill="#0c7cba" d="M-8-839h458V0H-8v-839zm417 245v-140H29v620h380v-140H169v-100h177v-140H169v-100h240" id="i"/><g id="a"><use transform="matrix(0.21333333333333335,0,0,0.21333333333333335,0,0)" xlink:href="#d"/><use transform="matrix(0.21333333333333335,0,0,0.21333333333333335,88.53333333333335,0)" xlink:href="#e"/><use transform="matrix(0.21333333333333335,0,0,0.21333333333333335,204.16000000000003,0)" xlink:href="#f"/><use transform="matrix(0.21333333333333335,0,0,0.21333333333333335,317.44000000000005,0)" xlink:href="#g"/><use transform="matrix(0.21333333333333335,0,0,0.21333333333333335,428.1600000000001,0)" xlink:href="#h"/><use transform="matrix(0.21333333333333335,0,0,0.21333333333333335,541.0133333333334,0)" xlink:href="#i"/></g><path fill="#0c7cba" d="M-8-839h668V0H-8v-839zm618 725c1-206-1-415 1-620-47 1-96-1-141 1L325-315 180-734H38v620h140v-223l77 223h140l75-216v216h140" id="j"/><path fill="#0c7cba" d="M-11-839h548V0H-11v-839zm343 416l167-311H359l-97 180-97-180H25l167 310v310h140v-309" id="k"/><g id="b"><use transform="matrix(0.21333333333333335,0,0,0.21333333333333335,0,0)" xlink:href="#j"/><use transform="matrix(0.21333333333333335,0,0,0.21333333333333335,139.52,0)" xlink:href="#k"/></g><path fill="#0c7cba" d="M539-838V1H-2v-839h541zM182-113c149-2 244-85 290-191 55-125 3-275-68-338-55-50-125-91-222-91H57v620h125" id="l"/><path fill="#0c7cba" d="M-8-839h428V0H-8v-839zm388 725v-140H182v-480H42v620h338" id="m"/><path fill="#0c7cba" d="M-13-839h239V0H-13v-839zm188 725v-620H35v620h140" id="n"/><g id="c"><use transform="matrix(0.21333333333333335,0,0,0.21333333333333335,0,0)" xlink:href="#l"/><use transform="matrix(0.21333333333333335,0,0,0.21333333333333335,113.28,0)" xlink:href="#i"/><use transform="matrix(0.21333333333333335,0,0,0.21333333333333335,207.36,0)" xlink:href="#h"/><use transform="matrix(0.21333333333333335,0,0,0.21333333333333335,320.21333333333337,0)" xlink:href="#m"/><use transform="matrix(0.21333333333333335,0,0,0.21333333333333335,407.2533333333334,0)" xlink:href="#n"/><use transform="matrix(0.21333333333333335,0,0,0.21333333333333335,454.18666666666667,0)" xlink:href="#g"/><use transform="matrix(0.21333333333333335,0,0,0.21333333333333335,564.9066666666668,0)" xlink:href="#i"/></g></defs></g></svg>